<?xml version="1.0" standalone="no"?>
<!DOCTYPE svg PUBLIC "-//W3C//DTD SVG 1.1//EN" "http://www.w3.org/Graphics/SVG/1.1/DTD/svg11.dtd" >
<svg xmlns="http://www.w3.org/2000/svg" xmlns:xlink="http://www.w3.org/1999/xlink" version="1.1">
<metadata></metadata>
<defs>
<font id="deckardmedium_evan" horiz-adv-x="1200" >
<font-face units-per-em="2048" ascent="1536" descent="-512" />
<missing-glyph horiz-adv-x="438" />
<glyph horiz-adv-x="0" />
<glyph horiz-adv-x="682" />
<glyph unicode="&#xd;" horiz-adv-x="284" />
<glyph unicode=" "  horiz-adv-x="438" />
<glyph unicode="&#x09;" horiz-adv-x="438" />
<glyph unicode="&#xa0;" horiz-adv-x="438" />
<glyph unicode="!" horiz-adv-x="595" d="M145 129q0 63 43.5 107.5t106.5 44.5q67 0 111.5 -44t44.5 -108q0 -62 -44.5 -105.5t-111.5 -43.5q-63 0 -106.5 43.5t-43.5 105.5zM176 1413h244l-21 -973h-202z" />
<glyph unicode="&#x22;" horiz-adv-x="751" d="M100 1413h211l-4 -489h-203zM438 1413h213l-4 -489h-203z" />
<glyph unicode="#" horiz-adv-x="1341" d="M76 391l45 207h184l55 240h-186l43 206h191l84 369h227l-84 -369h219l84 369h227l-84 -369h185l-43 -206h-189l-55 -240h190l-45 -207h-192l-88 -391h-228l89 391h-220l-88 -391h-227l88 391h-182zM532 598h220l55 240h-219z" />
<glyph unicode="$" horiz-adv-x="1239" d="M61 410l254 16q20 -92 81.5 -148.5t156.5 -74.5v409l-88 17q-74 14 -138 43t-116.5 75.5t-82.5 115.5t-30 153q0 177 125 289t330 127v167h137v-169q184 -17 303.5 -119t157.5 -273l-252 -26q-52 160 -209 196v-381l94 -16q189 -33 285 -138.5t96 -260.5 q0 -189 -133 -301.5t-342 -128.5v-168h-137v170q-201 17 -329.5 128.5t-162.5 297.5zM348 1024q0 -75 50 -114.5t141 -55.5l14 -2v362q-95 -11 -150 -60.5t-55 -129.5zM690 199q101 11 163 60t62 138q0 150 -206 189l-19 4v-391z" />
<glyph unicode="%" horiz-adv-x="1607" d="M66 1098q0 142 96.5 239t243.5 97q146 0 242.5 -97t96.5 -239q0 -139 -94.5 -236.5t-244.5 -97.5t-245 97.5t-95 236.5zM248 1098q0 -69 44.5 -118.5t113.5 -49.5q70 0 113.5 49t43.5 119q0 71 -45 120.5t-112 49.5t-112.5 -49.5t-45.5 -120.5zM250 0l940 1413h180 l-942 -1413h-178zM862 313q0 142 96.5 239t243.5 97t243.5 -97t96.5 -239q0 -139 -95 -236t-245 -97t-245 97t-95 236zM1044 313q0 -69 44.5 -118.5t113.5 -49.5q70 0 114 49t44 119q0 71 -45.5 121.5t-112.5 50.5t-112.5 -50.5t-45.5 -121.5z" />
<glyph unicode="&#x26;" horiz-adv-x="1411" d="M86 391q0 135 76.5 229.5t226.5 180.5q-77 94 -114 163.5t-37 149.5q0 145 102.5 232.5t253.5 87.5q155 0 249.5 -91t94.5 -225q0 -109 -64.5 -195t-177.5 -163l262 -299q68 136 74 274l223 -12q-16 -242 -145 -436l250 -287h-277l-112 129q-177 -149 -408 -149 q-131 0 -238 47.5t-173 142.5t-66 221zM326 395q0 -98 71.5 -158.5t177.5 -60.5q141 0 259 111l-316 364q-98 -63 -145 -122.5t-47 -133.5zM451 1116q0 -47 26.5 -92t93.5 -121q77 51 115.5 99t38.5 106q0 60 -37.5 99.5t-99.5 39.5q-58 0 -97.5 -34.5t-39.5 -96.5z" />
<glyph unicode="'" horiz-adv-x="411" d="M100 1413h211l-4 -489h-203z" />
<glyph unicode="(" horiz-adv-x="681" d="M90 612q0 263 90.5 501t237.5 417h225q-151 -199 -242.5 -431.5t-91.5 -486.5q0 -470 332 -913h-227q-146 179 -235 414.5t-89 498.5z" />
<glyph unicode=")" horiz-adv-x="681" d="M39 1530h227q147 -178 236.5 -416t89.5 -502q0 -263 -89 -498.5t-235 -414.5h-227q332 438 332 913q0 254 -91.5 486.5t-242.5 431.5z" />
<glyph unicode="*" horiz-adv-x="874" d="M68 1098l49 149l243 -80v246h156v-246l242 80l49 -149l-240 -80l156 -209l-125 -94l-160 215l-162 -215l-124 94l155 211z" />
<glyph unicode="+" horiz-adv-x="1202" d="M121 608v205h373v385h215v-385h374v-205h-374v-385h-215v385h-373z" />
<glyph unicode="," horiz-adv-x="598" d="M125 -262l145 254l31 16q-6 -2 -20 -2q-65 0 -107.5 43t-42.5 109t48.5 110.5t121.5 44.5q82 0 130 -55t48 -143q0 -63 -22 -113.5t-74 -132.5l-121 -188z" />
<glyph unicode="-" horiz-adv-x="768" d="M111 446v205h546v-205h-546z" />
<glyph unicode="." horiz-adv-x="573" d="M119 147q0 69 49 117.5t119 48.5q69 0 117.5 -48.5t48.5 -117.5q0 -70 -48.5 -118.5t-117.5 -48.5q-71 0 -119.5 48.5t-48.5 118.5z" />
<glyph unicode="/" horiz-adv-x="872" d="M-14 -293l635 1829h227l-635 -1829h-227z" />
<glyph unicode="0" horiz-adv-x="1329" d="M98 707q0 213 64 375.5t193.5 257t308.5 94.5q180 0 310 -94.5t194.5 -257t64.5 -375.5q0 -122 -21.5 -229.5t-67 -199.5t-112 -158t-160.5 -103t-208 -37t-208 37t-159.5 103t-111 158t-66.5 199.5t-21 229.5zM350 707q0 -143 32.5 -253.5t104.5 -179.5t177 -69 q106 0 178.5 69t104.5 179.5t32 253.5q0 226 -81.5 363.5t-233.5 137.5q-151 0 -232.5 -137.5t-81.5 -363.5z" />
<glyph unicode="1" horiz-adv-x="815" d="M78 989v250l342 174h201v-1413h-250v1141z" />
<glyph unicode="2" horiz-adv-x="1110" d="M63 999q27 193 156.5 314t339.5 121q107 0 195.5 -33.5t146.5 -91t89.5 -132.5t31.5 -159q0 -120 -62.5 -225t-193.5 -234l-338 -340h610v-219h-972v182l503 506q104 105 147.5 181t43.5 145q0 87 -56.5 141.5t-148.5 54.5q-101 0 -165.5 -65.5t-78.5 -169.5z" />
<glyph unicode="3" horiz-adv-x="1169" d="M80 391l242 23q13 -94 81.5 -156.5t174.5 -62.5q105 0 172 63t67 156q0 100 -69.5 156.5t-184.5 56.5h-88v200h98q96 0 159 54.5t63 146.5q0 84 -57 137.5t-150 53.5q-99 0 -157.5 -60.5t-78.5 -148.5l-241 24q15 82 51.5 152.5t94.5 127t144 88.5t191 32q200 0 325 -107 t125 -270q0 -114 -58.5 -196.5t-158.5 -125.5q114 -40 181 -125.5t67 -210.5q0 -182 -138.5 -300.5t-354.5 -118.5q-213 0 -344.5 115.5t-155.5 295.5z" />
<glyph unicode="4" horiz-adv-x="1226" d="M66 295v192l497 926h271l-488 -901h361v297h243v-297h207v-217h-207v-295h-243v295h-641z" />
<glyph unicode="5" horiz-adv-x="1155" d="M80 389l244 29q21 -100 86.5 -159.5t160.5 -59.5q109 0 181.5 73.5t72.5 186.5q0 111 -67.5 184.5t-175.5 73.5q-67 0 -126 -31t-91 -82h-222v809h852v-221h-620v-350q103 90 256 90q190 0 317 -131.5t127 -339.5q0 -219 -141 -350t-363 -131q-198 0 -329 108.5 t-162 300.5z" />
<glyph unicode="6" horiz-adv-x="1216" d="M94 686q0 343 150.5 545.5t408.5 202.5q182 0 303 -99.5t150 -257.5l-256 -26q-19 71 -72 118.5t-133 47.5q-135 0 -216 -131.5t-81 -354.5q51 90 138.5 141.5t201.5 51.5q122 0 223.5 -56.5t162.5 -164t61 -246.5q0 -215 -141 -346t-361 -131q-261 0 -400 190 q-139 186 -139 516zM389 459q0 -110 72.5 -184t179.5 -74q106 0 176 71.5t70 186.5q0 114 -70 185t-176 71q-107 0 -179.5 -73.5t-72.5 -182.5z" />
<glyph unicode="7" horiz-adv-x="1054" d="M63 1194v219h932v-176l-491 -1237h-268l477 1194h-650z" />
<glyph unicode="8" horiz-adv-x="1183" d="M80 395q0 119 62.5 208.5t176.5 139.5q-88 46 -136 125t-48 181q0 166 124 274.5t337 108.5q212 0 336.5 -107.5t124.5 -275.5q0 -103 -49 -182.5t-138 -125.5q111 -50 172.5 -139t61.5 -207q0 -178 -138 -296.5t-374 -118.5q-157 0 -274.5 56.5t-177.5 149.5t-60 209z M334 416q0 -97 70 -160t188 -63q120 0 190 62.5t70 160.5q0 99 -69.5 161t-190.5 62q-118 0 -188 -62.5t-70 -160.5zM381 1024q0 -84 58.5 -138.5t156.5 -54.5t156.5 54.5t58.5 138.5q0 85 -58.5 141t-156.5 56t-156.5 -56t-58.5 -141z" />
<glyph unicode="9" horiz-adv-x="1214" d="M82 958q0 209 143 342.5t359 133.5q252 0 395 -191q141 -193 141 -520q0 -342 -148.5 -542.5t-406.5 -200.5q-185 0 -307.5 100.5t-151.5 259.5l256 27q19 -73 73.5 -120.5t137.5 -47.5q132 0 210 127.5t83 347.5q-56 -84 -144 -133t-196 -49q-183 0 -313.5 131 t-130.5 335zM328 956q0 -109 72 -182.5t180 -73.5q109 0 181.5 73.5t72.5 182.5q0 110 -72.5 184t-181.5 74t-180.5 -73.5t-71.5 -184.5z" />
<glyph unicode=":" horiz-adv-x="561" d="M121 137q0 68 46 115t112 47q70 0 116.5 -47t46.5 -115q0 -65 -46.5 -111t-116.5 -46q-66 0 -112 46t-46 111zM121 782q0 66 46 113t112 47q70 0 116.5 -46.5t46.5 -113.5t-46.5 -113t-116.5 -46q-66 0 -112 46.5t-46 112.5z" />
<glyph unicode=";" horiz-adv-x="589" d="M125 -270l141 250l31 16q-6 -2 -18 -2q-65 0 -106.5 41.5t-41.5 105.5t47 108t117 44q81 0 128.5 -54.5t47.5 -140.5q0 -43 -14 -85t-30 -70.5t-52 -83.5l-119 -185zM137 782q0 66 46.5 113t113.5 47q69 0 116.5 -47t47.5 -113t-47.5 -112.5t-116.5 -46.5 q-67 0 -113.5 46.5t-46.5 112.5z" />
<glyph unicode="&#x3c;" horiz-adv-x="1202" d="M121 616v158l946 430v-219l-647 -289l647 -290v-220z" />
<glyph unicode="=" horiz-adv-x="1202" d="M121 426v201h962v-201h-962zM121 778v201h962v-201h-962z" />
<glyph unicode="&#x3e;" horiz-adv-x="1202" d="M135 186v220l647 290l-647 289v219l946 -430v-158z" />
<glyph unicode="?" horiz-adv-x="1032" d="M57 1040q8 82 39.5 153.5t86 129t139 90.5t188.5 33q193 0 318.5 -107.5t125.5 -291.5q0 -65 -16.5 -118t-52 -97t-63 -69.5t-77.5 -64.5q-36 -28 -56 -46t-45 -49.5t-36.5 -71t-11.5 -89.5v-34h-236v57q0 61 12.5 112.5t28.5 84.5t47.5 67.5t52 52t60.5 47.5 q78 59 113 106t35 116q0 92 -55 143t-140 51q-93 0 -152 -59t-67 -158zM324 133q0 66 44.5 111t110.5 45q68 0 114 -45t46 -111q0 -63 -46.5 -108t-113.5 -45q-65 0 -110 45t-45 108z" />
<glyph unicode="@" horiz-adv-x="1816" d="M109 479q0 174 62.5 326t173.5 262.5t272 174t350 63.5q169 0 308.5 -50.5t234 -141.5t146.5 -218.5t52 -278.5q0 -125 -33 -223t-89.5 -158t-127 -91t-149.5 -31q-84 0 -143.5 38t-82.5 111q-53 -76 -126 -119t-160 -43q-141 0 -227.5 105.5t-77.5 271.5 q11 183 123.5 314t271.5 131q131 0 215 -97l12 80h215l-65 -467q-30 -190 84 -190q88 0 147 99t59 265q0 256 -157.5 407.5t-429.5 151.5q-209 0 -371 -91.5t-248 -247.5t-86 -349q0 -289 187.5 -463t498.5 -174q256 0 471 121l41 -131q-211 -123 -508 -123 q-251 0 -442 94.5t-296 268.5t-105 403zM711 465q0 -85 39.5 -134.5t105.5 -49.5q89 0 151 80.5t62 193.5q0 88 -42 135t-112 47q-66 0 -114 -43.5t-69 -104t-21 -124.5z" />
<glyph unicode="A" horiz-adv-x="1423" d="M43 0l522 1413h289l526 -1413h-280l-113 322h-561l-115 -322h-268zM504 543h403l-202 577z" />
<glyph unicode="B" horiz-adv-x="1273" d="M154 0v1413h493q234 0 358.5 -95.5t124.5 -279.5q0 -222 -190 -301q250 -92 250 -350q0 -98 -36.5 -173t-103 -121.5t-154 -69.5t-194.5 -23h-548zM410 219h288q106 0 170 48.5t64 148.5q0 102 -63.5 150t-170.5 48h-288v-395zM410 823h229q233 0 233 187q0 184 -233 184 h-229v-371z" />
<glyph unicode="C" horiz-adv-x="1490" d="M86 707q0 212 85 377.5t241 257.5t358 92q236 0 404.5 -122.5t238.5 -336.5l-266 -37q-51 128 -147 199t-230 71q-189 0 -303.5 -139t-114.5 -362t114.5 -362.5t303.5 -139.5q134 0 231.5 71t147.5 199l266 -37q-71 -214 -240 -336t-405 -122q-202 0 -358 92t-241 257.5 t-85 377.5z" />
<glyph unicode="D" horiz-adv-x="1421" d="M154 0v1413h462q210 0 373.5 -88.5t254.5 -249.5t91 -368q0 -313 -200.5 -510t-518.5 -197h-462zM412 223h198q207 0 334 133t127 351t-127 350.5t-334 132.5h-198v-967z" />
<glyph unicode="E" horiz-adv-x="1157" d="M154 0v1413h903v-227h-645v-357h589v-223h-589v-377h661v-229h-919z" />
<glyph unicode="F" horiz-adv-x="1095" d="M154 2v1413l260 -2h608v-227h-608v-377h555v-225h-555v-584z" />
<glyph unicode="G" horiz-adv-x="1525" d="M86 702q0 157 51 293t141.5 232.5t219 151.5t278.5 55q226 0 393.5 -117.5t237.5 -327.5l-266 -37q-49 120 -141.5 188t-219.5 68q-191 0 -309.5 -141t-118.5 -365q0 -217 119.5 -357t312.5 -140q156 0 266 90t136 237h-365v220h625v-123q0 -289 -184 -469t-480 -180 q-205 0 -364.5 93.5t-245.5 257.5t-86 371z" />
<glyph unicode="H" horiz-adv-x="1462" d="M154 0v1413h260v-573h635v573h260v-1413h-260v604h-635v-604h-260z" />
<glyph unicode="I" horiz-adv-x="565" d="M154 0v1413h258v-1413h-258z" />
<glyph unicode="J" horiz-adv-x="1144" d="M53 403l258 23q12 -106 67.5 -161.5t149.5 -55.5q104 0 158.5 69.5t54.5 202.5v932h258v-938q0 -231 -126.5 -363t-350.5 -132q-208 0 -329.5 115t-139.5 308z" />
<glyph unicode="K" horiz-adv-x="1329" d="M154 0v1413h258v-641l534 641h316l-457 -545l500 -868h-297l-381 668l-215 -254v-414h-258z" />
<glyph unicode="L" horiz-adv-x="1083" d="M154 0v1413h260v-1186h610v-227h-870z" />
<glyph unicode="M" horiz-adv-x="1773" d="M154 0v1413h333l404 -1042l403 1042h326v-1413h-246v1008l-393 -1008h-186l-400 1014v-1014h-241z" />
<glyph unicode="N" horiz-adv-x="1511" d="M154 0v1413h270l682 -981v981h254v-1413h-254l-700 1016v-1016h-252z" />
<glyph unicode="O" horiz-adv-x="1585" d="M86 707q0 212 88.5 377.5t250 257.5t368.5 92q206 0 367 -92t250 -257.5t89 -377.5t-89 -377.5t-250 -257.5t-367 -92q-207 0 -368.5 92t-250 257.5t-88.5 377.5zM352 707q0 -220 122.5 -360t318.5 -140t319 140t123 360t-123 359.5t-319 139.5t-318.5 -139.5 t-122.5 -359.5z" />
<glyph unicode="P" horiz-adv-x="1218" d="M154 0v1413h483q114 0 206 -25.5t163 -77.5t110 -139.5t39 -203.5q0 -117 -39 -204.5t-110 -140t-163.5 -78.5t-205.5 -26h-225v-518h-258zM412 741h219q120 0 190 55.5t70 170.5t-69.5 169t-190.5 54h-219v-449z" />
<glyph unicode="Q" horiz-adv-x="1585" d="M86 707q0 212 88.5 377.5t250 257.5t368.5 92q206 0 367 -92t250 -257.5t89 -377.5q0 -309 -180 -508l147 -166l-172 -148l-155 174q-155 -79 -346 -79q-207 0 -368.5 92t-250 257.5t-88.5 377.5zM352 707q0 -220 122.5 -360t318.5 -140q101 0 182 37l-154 172l174 147 l152 -170q88 127 88 314q0 220 -123 359.5t-319 139.5t-318.5 -139.5t-122.5 -359.5z" />
<glyph unicode="R" horiz-adv-x="1269" d="M154 0v1413h501q111 0 201.5 -25t159.5 -76.5t107 -136t38 -196.5q0 -160 -76.5 -260t-214.5 -141l344 -578h-294l-318 549h-192v-549h-256zM410 772h241q115 0 182.5 51.5t67.5 155.5q0 106 -68 158.5t-182 52.5h-241v-418z" />
<glyph unicode="S" horiz-adv-x="1267" d="M74 410l266 16q23 -108 104.5 -166.5t200.5 -58.5q115 0 195 52t80 148q0 143 -195 179l-244 45q-73 13 -137.5 42.5t-117.5 76.5q-54 46 -84 116q-30 68 -29 151v5q0 190 142 304t366 114q212 0 349.5 -105t182.5 -291l-260 -26q-25 89 -94 144.5t-183 55.5 q-109 0 -175 -50.5t-68 -133.5q0 -70 50.5 -110.5t133.5 -55.5l244 -43q189 -33 285 -140t96 -265q-1 -138 -75.5 -238t-196 -148t-273.5 -48q-228 0 -377 114t-186 316z" />
<glyph unicode="T" horiz-adv-x="1202" d="M49 1184v229h1104v-229h-422v-1184h-260v1184h-422z" />
<glyph unicode="U" horiz-adv-x="1456" d="M147 565v848h261v-829q0 -175 81 -275t238 -100q158 0 240 100t82 275v829h258v-848q0 -265 -152 -425t-428 -160t-428 159t-152 426z" />
<glyph unicode="V" horiz-adv-x="1382" d="M33 1413h282l381 -1075l379 1075h277l-529 -1413h-260z" />
<glyph unicode="W" horiz-adv-x="1957" d="M41 1413h278l263 -1024l274 1024h250l276 -1026l263 1026h272l-399 -1413h-256l-283 995l-283 -995h-256z" />
<glyph unicode="X" horiz-adv-x="1400" d="M53 0l488 713l-449 700h305l303 -485l301 485h308l-449 -700l488 -713h-312l-336 502l-338 -502h-309z" />
<glyph unicode="Y" horiz-adv-x="1314" d="M31 1413h303l325 -575l318 575h307l-496 -833v-580h-260v580z" />
<glyph unicode="Z" horiz-adv-x="1216" d="M72 0v182l710 1004h-690v227h1034v-182l-710 -1004h714v-227h-1058z" />
<glyph unicode="[" horiz-adv-x="688" d="M152 -297v1810h450v-198h-229v-1413h229v-199h-450z" />
<glyph unicode="\" horiz-adv-x="872" d="M25 1536h227l635 -1829h-228z" />
<glyph unicode="]" horiz-adv-x="688" d="M86 -98h231v1413h-231v198h453v-1810h-453v199z" />
<glyph unicode="^" horiz-adv-x="917" d="M70 967l295 446h184l299 -446h-203l-186 282l-187 -282h-202z" />
<glyph unicode="_" horiz-adv-x="790" d="M-2 -106h795v-166h-795v166z" />
<glyph unicode="`" horiz-adv-x="1021" d="M256 1430h283l178 -297h-213z" />
<glyph unicode="a" horiz-adv-x="1118" d="M82 293q0 100 59 173t155.5 108.5t217.5 35.5q127 0 234 -39v82q0 99 -54 143t-139 44q-82 0 -138 -37t-69 -115l-233 12q12 87 51.5 152t100 103.5t133.5 57.5t159 19q90 0 164.5 -20.5t134.5 -63t93.5 -114.5t33.5 -168v-666h-229v119h-4q-112 -139 -299 -139 q-170 0 -270.5 89t-100.5 224zM319 299q0 -59 43.5 -98t124.5 -39q106 0 183.5 63t77.5 154v27q-101 40 -205 40q-103 0 -163.5 -39t-60.5 -108z" />
<glyph unicode="b" horiz-adv-x="1251" d="M141 0v1475h238v-592q127 149 332 149q95 0 179 -36.5t146.5 -102.5t98.5 -164t36 -215v-16q0 -231 -131.5 -374.5t-328.5 -143.5q-101 0 -187.5 39.5t-148.5 113.5v-133h-234zM369 498q0 -139 79 -226.5t199 -87.5t199.5 87.5t79.5 226.5v16q0 141 -80 227t-199 86 t-198.5 -86t-79.5 -227v-16z" />
<glyph unicode="c" horiz-adv-x="1132" d="M80 498v16q0 114 41 211.5t111 164.5t164 104.5t200 37.5q163 0 287 -85.5t176 -237.5l-240 -35q-67 153 -221 153q-119 0 -197.5 -87t-78.5 -226v-16q0 -139 78.5 -226.5t197.5 -87.5q77 0 134.5 41.5t88.5 114.5l240 -35q-50 -153 -175 -239t-290 -86q-142 0 -259 63.5 t-187 182.5t-70 272z" />
<glyph unicode="d" horiz-adv-x="1251" d="M80 498v16q0 233 132.5 375.5t328.5 142.5q204 0 331 -149v592h238v-1475h-233v133q-62 -74 -148.5 -113.5t-187.5 -39.5q-197 0 -329 143.5t-132 374.5zM326 498q0 -139 79 -226.5t199 -87.5t199.5 87.5t79.5 226.5v16q0 141 -80 227t-199 86t-198.5 -86t-79.5 -227v-16 z" />
<glyph unicode="e" horiz-adv-x="1165" d="M80 498v16q0 152 67.5 271t182.5 183t256 64q213 0 353 -141t140 -367v-80h-762q14 -122 87.5 -193t185.5 -71q149 0 223 135l246 -34q-59 -140 -184.5 -220.5t-286.5 -80.5q-142 0 -257.5 63.5t-183 182.5t-67.5 272zM322 608h516q-19 109 -84 169.5t-168 60.5 q-104 0 -173 -61t-91 -169z" />
<glyph unicode="f" horiz-adv-x="712" d="M35 807v205h166v129q0 175 88 264.5t254 89.5q55 0 141 -18v-205q-60 14 -104 14q-78 0 -109 -38.5t-31 -119.5v-116h217v-205h-217v-807h-239v807h-166z" />
<glyph unicode="g" horiz-adv-x="1249" d="M80 512v18q0 220 134.5 361t328.5 141q96 0 180.5 -38t146.5 -107v125h238v-949q0 -119 -39.5 -213.5t-110 -155t-164.5 -92.5t-206 -32q-116 0 -212 34t-171 114t-105 200l244 12q24 -82 89.5 -126t158.5 -44q121 0 199.5 74.5t78.5 208.5v113q-62 -70 -146.5 -108 t-180.5 -38q-195 0 -329 140.5t-134 361.5zM326 512q0 -132 78.5 -214.5t197.5 -82.5t198 82.5t79 214.5v18q0 132 -79 214.5t-198 82.5t-197.5 -82.5t-78.5 -214.5v-18z" />
<glyph unicode="h" horiz-adv-x="1196" d="M141 0v1475h238v-615q107 172 319 172q69 0 130.5 -20t114.5 -62t84.5 -117.5t31.5 -175.5v-657h-240v592q0 113 -49.5 174t-144.5 61q-104 0 -175 -69t-71 -183v-575h-238z" />
<glyph unicode="i" horiz-adv-x="520" d="M111 1311q0 63 43 106t106 43t107.5 -43t44.5 -106t-44.5 -106.5t-107.5 -43.5t-106 43.5t-43 106.5zM141 0v1012h238v-1012h-238z" />
<glyph unicode="j" horiz-adv-x="520" d="M-20 -219q44 0 69.5 4.5t48.5 20t33 48t10 85.5v1073h238v-1106q0 -182 -77.5 -259t-274.5 -77h-47v211zM111 1311q0 63 43 106t106 43t107.5 -43t44.5 -106t-44.5 -106.5t-107.5 -43.5t-106 43.5t-43 106.5z" />
<glyph unicode="k" horiz-adv-x="1120" d="M141 0v1475h238v-871l387 408h301l-369 -375l400 -637h-277l-289 467l-153 -158v-309h-238z" />
<glyph unicode="l" horiz-adv-x="520" d="M141 0v1475h238v-1475h-238z" />
<glyph unicode="m" horiz-adv-x="1816" d="M141 0v1012h234v-152h4q100 172 301 172q99 0 182.5 -44t126.5 -138q54 85 140.5 133.5t197.5 48.5q54 0 103 -12t95 -40t79.5 -70t54 -107t20.5 -146v-657h-239v592q0 113 -47 174t-136 61q-97 0 -163 -69t-66 -183v-575h-237v592q0 113 -47 174t-136 61 q-98 0 -163.5 -69t-65.5 -183v-575h-238z" />
<glyph unicode="n" horiz-adv-x="1196" d="M141 0v1012h234v-152h4q107 172 319 172q69 0 130.5 -20t114.5 -62t84.5 -117.5t31.5 -175.5v-657h-240v592q0 113 -49.5 174t-144.5 61q-104 0 -175 -69t-71 -183v-575h-238z" />
<glyph unicode="o" d="M80 498v16q0 153 70 272t188 182.5t262 63.5t262 -63.5t188 -182.5t70 -272v-16q0 -153 -70 -272t-188 -182.5t-262 -63.5t-262 63.5t-188 182.5t-70 272zM322 498q0 -139 79.5 -226.5t198.5 -87.5t199 87.5t80 226.5v16q0 139 -80 226t-199 87t-198.5 -87t-79.5 -226 v-16z" />
<glyph unicode="p" horiz-adv-x="1251" d="M141 -408v1420h236v-131q61 73 147.5 112t186.5 39q95 0 179 -36.5t146.5 -102.5t98.5 -164t36 -215v-16q0 -231 -131.5 -374.5t-328.5 -143.5q-99 0 -184.5 39t-147.5 110v-537h-238zM369 498q0 -138 79 -226t199 -88t199.5 88t79.5 226v16q0 142 -80 227.5t-199 85.5 t-198.5 -85t-79.5 -228v-16z" />
<glyph unicode="q" horiz-adv-x="1251" d="M80 498v16q0 233 132.5 375.5t328.5 142.5q99 0 185 -39.5t148 -111.5v131h236v-1420h-238v537q-127 -149 -331 -149q-197 0 -329 143.5t-132 374.5zM326 498q0 -139 79 -226.5t199 -87.5t199.5 87.5t79.5 226.5v16q0 141 -80 227t-199 86t-198.5 -86t-79.5 -227v-16z " />
<glyph unicode="r" horiz-adv-x="794" d="M141 0v1012h238v-189q115 209 338 209h6h10v-237h-10q-177 -1 -260.5 -87.5t-83.5 -265.5v-442h-238z" />
<glyph unicode="s" horiz-adv-x="999" d="M72 299l231 16q39 -151 207 -151q75 0 128.5 31.5t53.5 91.5q0 91 -131 112l-182 31q-124 20 -202.5 93t-78.5 194q0 98 55.5 171t145.5 108.5t201 35.5q161 0 270 -76t141 -217l-233 -20q-19 63 -67 96t-119 33q-74 0 -118 -32.5t-44 -82.5q0 -87 129 -106l180 -29 q136 -21 212.5 -93t76.5 -198q0 -156 -116.5 -241.5t-301.5 -85.5q-178 0 -292 82.5t-146 236.5z" />
<glyph unicode="t" horiz-adv-x="774" d="M41 809v203h170v288h240v-288h243v-203h-243v-485q0 -67 29.5 -101.5t101.5 -34.5q58 0 118 17v-205q-98 -20 -165 -20q-324 0 -324 317v512h-170z" />
<glyph unicode="u" horiz-adv-x="1196" d="M137 354v658h240v-590q0 -114 50.5 -176t145.5 -62q103 0 173.5 70t70.5 184v574h240v-1012h-236v152h-4q-107 -172 -317 -172q-54 0 -104.5 12t-98.5 40t-83 69.5t-56 106.5t-21 146z" />
<glyph unicode="v" horiz-adv-x="1079" d="M27 1012h260l258 -742l252 742h254l-379 -1012h-254z" />
<glyph unicode="w" horiz-adv-x="1579" d="M29 1012h243l201 -695l217 695h211l213 -693l197 693h239l-311 -1012h-231l-215 676l-218 -676h-227z" />
<glyph unicode="x" horiz-adv-x="1079" d="M27 0l368 522l-344 490h279l213 -314l211 314h268l-342 -490l373 -522h-279l-237 348l-240 -348h-270z" />
<glyph unicode="y" horiz-adv-x="1095" d="M31 1012h258l264 -721l256 721h256l-555 -1422h-252l168 412z" />
<glyph unicode="z" horiz-adv-x="958" d="M68 0v160l497 657h-473v195h789v-150l-500 -657h510v-205h-823z" />
<glyph unicode="{" horiz-adv-x="729" d="M236 373v375q0 229 26 229h57v33h-61q41 0 41 90v22q0 5 7.5 6t19.5 -3t24 -13l121 -4q31 -12 49.5 -105t18.5 -167l-47 -170q-34 -42 -7 -91l72 -141q0 -77 -20.5 -142t-61.5 -81l-67 -4q-1 -11 -8 -31.5t-7 -30.5v23q0 17 -4 33v-58h-102q-23 0 -37 58t-14 172z" />
<glyph unicode="|" horiz-adv-x="548" d="M162 -410v1946h225v-1946h-225z" />
<glyph unicode="}" horiz-adv-x="729" d="M90 -233l72 139q20 0 48 11t28 30q15 0 25.5 87.5t10.5 133.5q0 76 17.5 172.5t48.5 108.5q0 131 82 167q-68 26 -68 136q-38 17 -59 130t-21 205q0 36 -9 109.5t-21 73.5q0 22 -40.5 35.5t-66.5 13.5l-47 59l68 140q63 0 140 -27.5t77 -73.5q34 0 63 -57.5t42.5 -124 t13.5 -113.5q0 -80 18.5 -190.5t48.5 -110.5q0 -62 25.5 -95.5t62.5 -33.5l10 -59l-18 -92q-34 0 -56 -27t-22 -80q-30 0 -49.5 -107.5t-19.5 -193.5q0 -73 -29 -188t-68 -115q0 -39 -32 -68.5t-73 -42t-81 -12.5z" />
<glyph unicode="~" horiz-adv-x="995" d="M74 389q7 161 77 251.5t183 90.5q51 0 101 -18.5t81.5 -41t68 -41t64.5 -18.5q41 0 64 29.5t26 83.5h183q-4 -165 -80.5 -254.5t-179.5 -89.5q-50 0 -99.5 18.5t-82.5 41t-70 41t-64 18.5q-77 0 -90 -111h-182z" />
<glyph unicode="&#xa1;" horiz-adv-x="595" d="M145 838q0 62 44.5 105.5t111.5 43.5q63 0 106.5 -43.5t43.5 -105.5q0 -63 -43.5 -107.5t-106.5 -44.5q-67 0 -111.5 44t-44.5 108zM176 -446l21 972h202l21 -972h-244z" />
<glyph unicode="&#xa2;" horiz-adv-x="1130" d="M76 498v16q0 207 124.5 347t313.5 165v150h139v-148q141 -15 248 -99t154 -220l-240 -35q-54 120 -162 147v-631q112 27 164 150l240 -35q-45 -138 -153 -222t-251 -99v-148h-139v150q-190 25 -314 164.5t-124 347.5zM317 498q0 -114 54 -194t143 -107v618 q-89 -27 -143 -107t-54 -194v-16z" />
<glyph unicode="&#xa3;" horiz-adv-x="1226" d="M59 0v211h154q25 123 25 203v192h-158v207h158v135q0 226 120.5 356t341.5 130q202 0 320.5 -104t132.5 -283l-244 -9q-12 93 -65 140t-142 47q-108 0 -163.5 -72.5t-55.5 -204.5v-135h361v-207h-361v-192q0 -109 -24 -203h698v-211h-1098z" />
<glyph unicode="&#xa5;" horiz-adv-x="1339" d="M43 1413h303l326 -575l317 575h307l-403 -680h227v-153h-319v-99h319v-153h-319v-328h-260v328h-320v153h320v99h-320v153h228z" />
<glyph unicode="&#xa6;" horiz-adv-x="548" d="M162 -410v879h225v-879h-225zM162 657v879h225v-879h-225z" />
<glyph unicode="&#xa7;" horiz-adv-x="1144" d="M76 672q0 104 51.5 182t140.5 119q-84 94 -84 225q0 157 109 247.5t270 90.5q158 0 265 -87.5t133 -244.5l-236 -20q-7 73 -49.5 114t-110.5 41q-69 0 -108 -39.5t-39 -101.5q0 -88 90 -158l307 -227q38 -28 51.5 -38t45.5 -35t45 -39t36.5 -39.5t33.5 -46t22.5 -48.5 t17 -58.5t4.5 -64.5q0 -217 -194 -297q86 -93 86 -225q0 -162 -111 -251t-285 -89t-280 91t-129 264l231 16q8 -83 52 -129.5t120 -46.5q70 0 116 37.5t46 109.5q0 46 -24 83.5t-81 80.5l-321 236q-51 37 -84 66t-67.5 72t-52 95.5t-17.5 114.5zM309 686q0 -98 111 -184 l285 -217l4 -4q122 24 122 149q0 55 -30 100t-90 93l-283 215l-2 2q-55 -10 -86 -52.5t-31 -101.5z" />
<glyph unicode="&#xa8;" horiz-adv-x="1021" d="M172 1296q0 56 40.5 96t98.5 40q60 0 101 -40t41 -96q0 -57 -41 -97t-101 -40q-58 0 -98.5 40t-40.5 97zM569 1296q0 56 41 96t101 40q59 0 99 -40t40 -96q0 -58 -40 -97.5t-99 -39.5q-60 0 -101 40t-41 97z" />
<glyph unicode="&#xa9;" horiz-adv-x="1656" d="M102 707q0 197 97.5 364.5t265 265t364.5 97.5t364.5 -97.5t265 -265t97.5 -364.5t-97.5 -364.5t-265 -265t-364.5 -97.5t-364.5 97.5t-265 265t-97.5 364.5zM203 707q0 -127 49.5 -243t133.5 -199.5t200 -133t243 -49.5q169 0 313 83.5t228 227.5t84 314 q0 127 -49.5 243t-133.5 200t-199.5 133.5t-242.5 49.5t-243 -49.5t-200 -133.5t-133.5 -200t-49.5 -243zM408 713q0 198 117.5 326t305.5 128q144 0 249.5 -77.5t148.5 -210.5l-185 -23q-28 72 -83 111t-130 39q-108 0 -173.5 -82t-65.5 -213q0 -130 65.5 -211.5 t173.5 -81.5q76 0 130.5 39t82.5 112l185 -24q-43 -132 -148.5 -209.5t-249.5 -77.5q-188 0 -305.5 128t-117.5 327z" />
<glyph unicode="&#xab;" horiz-adv-x="966" d="M88 498l219 344h207l-209 -344l209 -342h-207zM457 498l219 344h207l-209 -344l209 -342h-207z" />
<glyph unicode="&#xad;" horiz-adv-x="768" d="M111 446v205h546v-205h-546z" />
<glyph unicode="&#xae;" horiz-adv-x="960" d="M70 1024q0 171 119.5 291.5t289.5 120.5t291 -121t121 -291t-121 -290t-291 -120t-289.5 120t-119.5 290zM139 1024q0 -141 99.5 -240.5t240.5 -99.5t241.5 99.5t100.5 240.5t-100.5 241.5t-241.5 100.5t-240.5 -100.5t-99.5 -241.5zM336 811v428h162q69 0 111 -31.5 t42 -97.5q0 -96 -90 -123l105 -176h-107l-96 168h-35v-168h-92zM428 1059h64q65 0 65 51q0 49 -65 49h-64v-100z" />
<glyph unicode="&#xaf;" horiz-adv-x="1021" d="M231 1212v172h560v-172h-560z" />
<glyph unicode="&#xb0;" horiz-adv-x="888" d="M119 1130q0 138 93.5 232t231.5 94t232 -94t94 -232t-94 -231.5t-232 -93.5t-231.5 93.5t-93.5 231.5zM258 1130q0 -81 54.5 -138.5t131.5 -57.5t132 57.5t55 138.5t-55 139t-132 58t-131.5 -57.5t-54.5 -139.5z" />
<glyph unicode="&#xb1;" horiz-adv-x="1202" d="M121 0v205h962v-205h-962zM121 643v203h373v328h215v-328h374v-203h-374v-326h-215v326h-373z" />
<glyph unicode="&#xb2;" horiz-adv-x="550" d="M39 1278q13 93 75.5 151t164.5 58t162.5 -58t60.5 -141q0 -58 -30.5 -108t-92.5 -111l-160 -160h289v-108h-467v90l242 242q88 88 88 151q0 41 -26.5 66.5t-70.5 25.5q-46 0 -76 -30.5t-36 -79.5z" />
<glyph unicode="&#xb3;" horiz-adv-x="581" d="M47 989l121 10q5 -43 37.5 -72.5t81.5 -29.5q50 0 81 29t31 73q0 48 -32 74.5t-84 26.5h-45v98h47q45 0 74.5 25.5t29.5 68.5q0 39 -26 63.5t-70 24.5q-47 0 -74.5 -28t-36.5 -68l-119 12q15 83 74 137t158 54q96 0 156.5 -50.5t60.5 -129.5q0 -108 -104 -154 q55 -20 86.5 -60.5t31.5 -99.5q0 -88 -66.5 -145t-170.5 -57t-167.5 55.5t-74.5 142.5z" />
<glyph unicode="&#xb4;" horiz-adv-x="1021" d="M283 1133l178 297h282l-247 -297h-213z" />
<glyph unicode="&#xb5;" horiz-adv-x="1196" d="M137 354v658h240v-590q0 -114 50.5 -176t145.5 -62q103 0 173.5 70t70.5 184v574h240v-1012h-236v152h-4q-107 -172 -317 -172q-78 0 -148 24l8 -147v-265h-221v713q-2 16 -2 49z" />
<glyph unicode="&#xb6;" horiz-adv-x="1234" d="M90 1020q0 171 114 282t300 111h565v-1618h-201v1446h-176v-1446h-200v832q-182 4 -292 114t-110 279z" />
<glyph unicode="&#xb7;" horiz-adv-x="563" d="M121 614q0 67 46 113.5t112 46.5q70 0 116.5 -46t46.5 -114q0 -66 -46.5 -111.5t-116.5 -45.5q-66 0 -112 45.5t-46 111.5z" />
<glyph unicode="&#xb8;" horiz-adv-x="1021" d="M332 -301l166 301h194l-153 -301h-207z" />
<glyph unicode="&#xb9;" horiz-adv-x="413" d="M47 1272v123l164 84h98v-678h-123v542z" />
<glyph unicode="&#xbb;" horiz-adv-x="966" d="M84 156l207 342l-207 344h207l217 -344l-217 -342h-207zM453 156l209 342l-209 344h206l220 -344l-220 -342h-206z" />
<glyph unicode="&#xbf;" horiz-adv-x="1038" d="M109 -76q0 53 13 99.5t30 78t49 66.5t54 54t62 50q36 28 56 46t45.5 49.5t37 71t11.5 89.5v35h235v-57q0 -61 -12.5 -112.5t-28 -85t-47 -68t-52.5 -52t-60 -47.5q-78 -59 -113 -105.5t-35 -115.5q0 -92 55 -143t140 -51q93 0 152 59t67 158l238 -13q-8 -82 -39.5 -153.5 t-86 -128.5t-139 -90t-188.5 -33q-193 0 -318.5 107.5t-125.5 291.5zM424 838q0 63 46.5 108t113.5 45q66 0 110.5 -44.5t44.5 -108.5q0 -66 -44.5 -111t-110.5 -45q-68 0 -114 45t-46 111z" />
<glyph unicode="&#xc0;" horiz-adv-x="1423" d="M43 0l522 1413h289l526 -1413h-280l-113 322h-561l-115 -322h-268zM356 1831h283l178 -297h-213zM504 543h403l-202 577z" />
<glyph unicode="&#xc1;" horiz-adv-x="1423" d="M43 0l522 1413h289l526 -1413h-280l-113 322h-561l-115 -322h-268zM504 543h403l-202 577zM592 1534l178 297h283l-248 -297h-213z" />
<glyph unicode="&#xc2;" horiz-adv-x="1423" d="M43 0l522 1413h289l526 -1413h-280l-113 322h-561l-115 -322h-268zM375 1534l217 303h237l215 -303h-194l-139 170l-142 -170h-194zM504 543h403l-202 577z" />
<glyph unicode="&#xc3;" horiz-adv-x="1423" d="M43 0l522 1413h289l526 -1413h-280l-113 322h-561l-115 -322h-268zM399 1554q0 48 10.5 93t32.5 84.5t61.5 63.5t92.5 24q41 0 75 -15t53 -33.5t44 -33.5t51 -15q34 0 52 23.5t18 66.5h133q0 -130 -55 -199t-142 -69q-49 0 -89 24.5t-72.5 49t-63.5 24.5q-68 0 -68 -88 h-133zM504 543h403l-202 577z" />
<glyph unicode="&#xc4;" horiz-adv-x="1423" d="M43 0l522 1413h289l526 -1413h-280l-113 322h-561l-115 -322h-268zM360 1696q0 56 41 95.5t99 39.5q60 0 100.5 -39.5t40.5 -95.5q0 -57 -40.5 -97t-100.5 -40q-58 0 -99 40t-41 97zM504 543h403l-202 577zM758 1696q0 56 40.5 95.5t100.5 39.5q59 0 99 -39.5t40 -95.5 q0 -58 -40 -97.5t-99 -39.5q-60 0 -100.5 40t-40.5 97z" />
<glyph unicode="&#xc5;" horiz-adv-x="1423" d="M43 0l522 1413h289l526 -1413h-280l-113 322h-561l-115 -322h-268zM504 543h403l-202 577zM512 1714q0 83 58 141t141 58q84 0 141 -57.5t57 -141.5q0 -80 -57 -137t-141 -57q-83 0 -141 57t-58 137zM631 1714q0 -34 23 -57t57 -23q33 0 55 23t22 57q0 36 -22 60t-55 24 q-34 0 -57 -24.5t-23 -59.5z" />
<glyph unicode="&#xc6;" horiz-adv-x="2095" d="M37 0l911 1413h1047v-227h-645v-357h589v-223h-589v-377h661v-229h-919v322h-551l-207 -322h-297zM682 543h410v641z" />
<glyph unicode="&#xc7;" horiz-adv-x="1490" d="M86 707q0 212 85 377.5t241 257.5t358 92q236 0 404.5 -122.5t238.5 -336.5l-266 -37q-51 128 -147 199t-230 71q-189 0 -303.5 -139t-114.5 -362t114.5 -362.5t303.5 -139.5q134 0 231.5 71t147.5 199l266 -37q-64 -191 -206 -309t-343 -143l-145 -287h-207l158 287 q-175 21 -308 117.5t-205.5 252.5t-72.5 351z" />
<glyph unicode="&#xc8;" horiz-adv-x="1157" d="M154 0v1413h903v-227h-645v-357h589v-223h-589v-377h661v-229h-919zM260 1831h283l178 -297h-213z" />
<glyph unicode="&#xc9;" horiz-adv-x="1157" d="M154 0v1413h903v-227h-645v-357h589v-223h-589v-377h661v-229h-919zM496 1534l178 297h282l-247 -297h-213z" />
<glyph unicode="&#xca;" horiz-adv-x="1157" d="M154 0v1413h903v-227h-645v-357h589v-223h-589v-377h661v-229h-919zM279 1534l217 303h237l215 -303h-194l-140 170l-141 -170h-194z" />
<glyph unicode="&#xcb;" horiz-adv-x="1157" d="M154 0v1413h903v-227h-645v-357h589v-223h-589v-377h661v-229h-919zM264 1696q0 56 40.5 95.5t98.5 39.5q60 0 101 -39.5t41 -95.5q0 -57 -41 -97t-101 -40q-58 0 -98.5 40t-40.5 97zM662 1696q0 56 40.5 95.5t100.5 39.5q59 0 99 -39.5t40 -95.5q0 -58 -40 -97.5 t-99 -39.5q-60 0 -100.5 40t-40.5 97z" />
<glyph unicode="&#xcc;" horiz-adv-x="565" d="M-72 1831h283l178 -297h-213zM154 0v1413h258v-1413h-258z" />
<glyph unicode="&#xcd;" horiz-adv-x="565" d="M154 0v1413h258v-1413h-258zM164 1534l178 297h283l-248 -297h-213z" />
<glyph unicode="&#xce;" horiz-adv-x="565" d="M-53 1534l217 303h237l215 -303h-194l-139 170l-142 -170h-194zM154 0v1413h258v-1413h-258z" />
<glyph unicode="&#xcf;" horiz-adv-x="565" d="M-68 1696q0 56 41 95.5t99 39.5q60 0 100.5 -39.5t40.5 -95.5q0 -57 -40.5 -97t-100.5 -40q-58 0 -99 40t-41 97zM154 0v1413h258v-1413h-258zM330 1696q0 56 40.5 95.5t100.5 39.5q59 0 99 -39.5t40 -95.5q0 -58 -40 -97.5t-99 -39.5q-60 0 -100.5 40t-40.5 97z" />
<glyph unicode="&#xd0;" horiz-adv-x="1419" d="M35 600v215h119v598h462q210 0 373.5 -88.5t254.5 -249.5t91 -368q0 -313 -200.5 -510t-518.5 -197h-462v600h-119zM412 223h198q207 0 334 133t127 351t-127 350.5t-334 132.5h-198v-375h352v-215h-352v-377z" />
<glyph unicode="&#xd1;" horiz-adv-x="1511" d="M154 0v1413h270l682 -981v981h254v-1413h-254l-700 1016v-1016h-252zM446 1554q0 48 10.5 93t32.5 84.5t61.5 63.5t92.5 24q41 0 75 -15t53 -33.5t44 -33.5t51 -15q34 0 52 23.5t18 66.5h133q0 -130 -55 -199t-142 -69q-49 0 -89 24.5t-72.5 49t-63.5 24.5q-67 0 -67 -88 h-134z" />
<glyph unicode="&#xd2;" horiz-adv-x="1585" d="M86 707q0 212 88.5 377.5t250 257.5t368.5 92q206 0 367 -92t250 -257.5t89 -377.5t-89 -377.5t-250 -257.5t-367 -92q-207 0 -368.5 92t-250 257.5t-88.5 377.5zM352 707q0 -220 122.5 -360t318.5 -140t319 140t123 360t-123 359.5t-319 139.5t-318.5 -139.5 t-122.5 -359.5zM438 1831h283l178 -297h-213z" />
<glyph unicode="&#xd3;" horiz-adv-x="1585" d="M86 707q0 212 88.5 377.5t250 257.5t368.5 92q206 0 367 -92t250 -257.5t89 -377.5t-89 -377.5t-250 -257.5t-367 -92q-207 0 -368.5 92t-250 257.5t-88.5 377.5zM352 707q0 -220 122.5 -360t318.5 -140t319 140t123 360t-123 359.5t-319 139.5t-318.5 -139.5 t-122.5 -359.5zM674 1534l178 297h283l-248 -297h-213z" />
<glyph unicode="&#xd4;" horiz-adv-x="1585" d="M86 707q0 212 88.5 377.5t250 257.5t368.5 92q206 0 367 -92t250 -257.5t89 -377.5t-89 -377.5t-250 -257.5t-367 -92q-207 0 -368.5 92t-250 257.5t-88.5 377.5zM352 707q0 -220 122.5 -360t318.5 -140t319 140t123 360t-123 359.5t-319 139.5t-318.5 -139.5 t-122.5 -359.5zM457 1534l217 303h237l215 -303h-194l-139 170l-142 -170h-194z" />
<glyph unicode="&#xd5;" horiz-adv-x="1585" d="M86 707q0 212 88.5 377.5t250 257.5t368.5 92q206 0 367 -92t250 -257.5t89 -377.5t-89 -377.5t-250 -257.5t-367 -92q-207 0 -368.5 92t-250 257.5t-88.5 377.5zM352 707q0 -220 122.5 -360t318.5 -140t319 140t123 360t-123 359.5t-319 139.5t-318.5 -139.5 t-122.5 -359.5zM481 1554q0 48 10.5 93t32.5 84.5t61.5 63.5t92.5 24q41 0 75 -15t53 -33.5t44 -33.5t51 -15q34 0 52 23.5t18 66.5h133q0 -130 -55 -199t-142 -69q-49 0 -89 24.5t-72.5 49t-63.5 24.5q-68 0 -68 -88h-133z" />
<glyph unicode="&#xd6;" horiz-adv-x="1585" d="M86 707q0 212 88.5 377.5t250 257.5t368.5 92q206 0 367 -92t250 -257.5t89 -377.5t-89 -377.5t-250 -257.5t-367 -92q-207 0 -368.5 92t-250 257.5t-88.5 377.5zM352 707q0 -220 122.5 -360t318.5 -140t319 140t123 360t-123 359.5t-319 139.5t-318.5 -139.5 t-122.5 -359.5zM442 1696q0 56 41 95.5t99 39.5q60 0 100.5 -39.5t40.5 -95.5q0 -57 -40.5 -97t-100.5 -40q-58 0 -99 40t-41 97zM840 1696q0 56 40.5 95.5t100.5 39.5q59 0 99 -39.5t40 -95.5q0 -58 -40 -97.5t-99 -39.5q-60 0 -100.5 40t-40.5 97z" />
<glyph unicode="&#xd7;" horiz-adv-x="1202" d="M160 1001l151 152l295 -293l285 285l143 -146l-284 -284l292 -293l-151 -154l-293 295l-287 -287l-143 146l285 285z" />
<glyph unicode="&#xd8;" horiz-adv-x="1585" d="M86 707q0 212 88.5 377.5t250 257.5t368.5 92q234 0 405 -117l117 137l125 -96l-121 -144q180 -199 180 -507q0 -212 -89 -377.5t-250 -257.5t-367 -92q-240 0 -414 120l-121 -141l-127 98l127 150q-172 200 -172 500zM352 707q0 -173 76 -297l612 720q-105 76 -247 76 q-196 0 -318.5 -139.5t-122.5 -359.5zM537 289q108 -82 256 -82q196 0 319 140t123 360q0 176 -84 309z" />
<glyph unicode="&#xd9;" horiz-adv-x="1456" d="M147 565v848h261v-829q0 -175 81 -275t238 -100q158 0 240 100t82 275v829h258v-848q0 -265 -152 -425t-428 -160t-428 159t-152 426zM375 1831h282l179 -297h-213z" />
<glyph unicode="&#xda;" horiz-adv-x="1456" d="M147 565v848h261v-829q0 -175 81 -275t238 -100q158 0 240 100t82 275v829h258v-848q0 -265 -152 -425t-428 -160t-428 159t-152 426zM608 1534l178 297h283l-248 -297h-213z" />
<glyph unicode="&#xdb;" horiz-adv-x="1456" d="M147 565v848h261v-829q0 -175 81 -275t238 -100q158 0 240 100t82 275v829h258v-848q0 -265 -152 -425t-428 -160t-428 159t-152 426zM391 1534l217 303h238l215 -303h-195l-139 170l-141 -170h-195z" />
<glyph unicode="&#xdc;" horiz-adv-x="1456" d="M147 565v848h261v-829q0 -175 81 -275t238 -100q158 0 240 100t82 275v829h258v-848q0 -265 -152 -425t-428 -160t-428 159t-152 426zM377 1696q0 56 40.5 95.5t98.5 39.5q60 0 100.5 -39.5t40.5 -95.5q0 -57 -40.5 -97t-100.5 -40q-58 0 -98.5 40t-40.5 97zM774 1696 q0 56 40.5 95.5t100.5 39.5q59 0 99.5 -39.5t40.5 -95.5q0 -57 -40 -97t-100 -40t-100.5 40t-40.5 97z" />
<glyph unicode="&#xdd;" horiz-adv-x="1314" d="M31 1413h303l325 -575l318 575h307l-496 -833v-580h-260v580zM545 1534l178 297h283l-248 -297h-213z" />
<glyph unicode="&#xde;" horiz-adv-x="1218" d="M154 0v1413h241v-266h238q113 0 204 -24.5t161 -75.5t108.5 -136.5t38.5 -199.5t-38.5 -199t-108.5 -136.5t-161 -76.5t-204 -25h-238v-274h-241zM395 498h238q116 0 185 52t69 161q0 110 -69 161.5t-185 51.5h-238v-426z" />
<glyph unicode="&#xdf;" d="M141 -10v1034q0 219 119 345t328 126q192 0 315 -103t123 -278q0 -196 -162 -285q126 -54 193 -156.5t67 -240.5q0 -201 -131.5 -326.5t-335.5 -125.5q-77 0 -141 18v199q50 -15 107 -15q117 0 189.5 70.5t72.5 193.5q0 127 -79 206t-220 79h-64v182h56q93 0 150.5 47 t57.5 140q0 90 -53.5 140t-138.5 50q-101 0 -158 -71.5t-57 -200.5v-1028h-238z" />
<glyph unicode="&#xe0;" horiz-adv-x="1118" d="M82 293q0 100 59 173t155.5 108.5t217.5 35.5q127 0 234 -39v82q0 99 -54 143t-139 44q-82 0 -138 -37t-69 -115l-233 12q12 87 51.5 152t100 103.5t133.5 57.5t159 19q90 0 164.5 -20.5t134.5 -63t93.5 -114.5t33.5 -168v-666h-229v119h-4q-112 -139 -299 -139 q-170 0 -270.5 89t-100.5 224zM203 1430h282l179 -297h-213zM319 299q0 -59 43.5 -98t124.5 -39q106 0 183.5 63t77.5 154v27q-101 40 -205 40q-103 0 -163.5 -39t-60.5 -108z" />
<glyph unicode="&#xe1;" horiz-adv-x="1118" d="M82 293q0 100 59 173t155.5 108.5t217.5 35.5q127 0 234 -39v82q0 99 -54 143t-139 44q-82 0 -138 -37t-69 -115l-233 12q12 87 51.5 152t100 103.5t133.5 57.5t159 19q90 0 164.5 -20.5t134.5 -63t93.5 -114.5t33.5 -168v-666h-229v119h-4q-112 -139 -299 -139 q-170 0 -270.5 89t-100.5 224zM319 299q0 -59 43.5 -98t124.5 -39q106 0 183.5 63t77.5 154v27q-101 40 -205 40q-103 0 -163.5 -39t-60.5 -108zM438 1133l178 297h283l-248 -297h-213z" />
<glyph unicode="&#xe2;" horiz-adv-x="1118" d="M82 293q0 100 59 173t155.5 108.5t217.5 35.5q127 0 234 -39v82q0 99 -54 143t-139 44q-82 0 -138 -37t-69 -115l-233 12q12 87 51.5 152t100 103.5t133.5 57.5t159 19q90 0 164.5 -20.5t134.5 -63t93.5 -114.5t33.5 -168v-666h-229v119h-4q-112 -139 -299 -139 q-170 0 -270.5 89t-100.5 224zM221 1133l217 303h238l215 -303h-195l-139 170l-141 -170h-195zM319 299q0 -59 43.5 -98t124.5 -39q106 0 183.5 63t77.5 154v27q-101 40 -205 40q-103 0 -163.5 -39t-60.5 -108z" />
<glyph unicode="&#xe3;" horiz-adv-x="1118" d="M82 293q0 100 59 173t155.5 108.5t217.5 35.5q127 0 234 -39v82q0 99 -54 143t-139 44q-82 0 -138 -37t-69 -115l-233 12q12 87 51.5 152t100 103.5t133.5 57.5t159 19q90 0 164.5 -20.5t134.5 -63t93.5 -114.5t33.5 -168v-666h-229v119h-4q-112 -139 -299 -139 q-170 0 -270.5 89t-100.5 224zM246 1155q0 48 10.5 92.5t32 84.5t61 63.5t92.5 23.5q41 0 75 -15t53 -33t44.5 -33t51.5 -15q69 0 69 90h133q0 -130 -54.5 -199t-141.5 -69q-39 0 -73 15.5t-54.5 33.5t-47 33.5t-51.5 15.5q-67 0 -67 -88h-133zM319 299q0 -59 43.5 -98 t124.5 -39q106 0 183.5 63t77.5 154v27q-101 40 -205 40q-103 0 -163.5 -39t-60.5 -108z" />
<glyph unicode="&#xe4;" horiz-adv-x="1118" d="M82 293q0 100 59 173t155.5 108.5t217.5 35.5q127 0 234 -39v82q0 99 -54 143t-139 44q-82 0 -138 -37t-69 -115l-233 12q12 87 51.5 152t100 103.5t133.5 57.5t159 19q90 0 164.5 -20.5t134.5 -63t93.5 -114.5t33.5 -168v-666h-229v119h-4q-112 -139 -299 -139 q-170 0 -270.5 89t-100.5 224zM207 1294q0 56 40.5 96t98.5 40q59 0 100 -40t41 -96q0 -57 -40.5 -97t-100.5 -40q-58 0 -98.5 40t-40.5 97zM319 299q0 -59 43.5 -98t124.5 -39q106 0 183.5 63t77.5 154v27q-101 40 -205 40q-103 0 -163.5 -39t-60.5 -108zM604 1294 q0 56 41 96t100 40t99.5 -40t40.5 -96q0 -57 -40 -97t-100 -40t-100.5 40t-40.5 97z" />
<glyph unicode="&#xe5;" horiz-adv-x="1118" d="M82 293q0 100 59 173t155.5 108.5t217.5 35.5q127 0 234 -39v82q0 99 -54 143t-139 44q-82 0 -138 -37t-69 -115l-233 12q12 87 51.5 152t100 103.5t133.5 57.5t159 19q90 0 164.5 -20.5t134.5 -63t93.5 -114.5t33.5 -168v-666h-229v119h-4q-112 -139 -299 -139 q-170 0 -270.5 89t-100.5 224zM319 299q0 -59 43.5 -98t124.5 -39q106 0 183.5 63t77.5 154v27q-101 40 -205 40q-103 0 -163.5 -39t-60.5 -108zM356 1313q0 83 58 140.5t141 57.5q85 0 142 -57.5t57 -140.5q0 -80 -57.5 -137.5t-141.5 -57.5q-83 0 -141 57.5t-58 137.5z M475 1313q0 -34 23 -57t57 -23t56 23t22 57q0 36 -22 60t-56 24t-57 -24.5t-23 -59.5z" />
<glyph unicode="&#xe6;" horiz-adv-x="1822" d="M82 291q0 162 136 239.5t386 77.5h137v33q0 106 -52.5 152.5t-139.5 46.5q-81 0 -134.5 -37t-66.5 -115l-233 12q11 87 50.5 152.5t99 104t129 57t149.5 18.5q232 0 352 -145q142 145 350 145q212 0 351 -141t139 -367v-80h-752q13 -121 85 -192.5t181 -71.5 q145 0 219 135l246 -34q-59 -140 -182.5 -220.5t-282.5 -80.5q-115 0 -213.5 47.5t-167.5 132.5q-62 -84 -162.5 -133.5t-232.5 -49.5q-176 0 -283.5 83t-107.5 231zM319 295q0 -65 46.5 -99t126.5 -34q114 0 181.5 61t67.5 156v63h-120q-149 0 -225.5 -33t-76.5 -114z M985 608h508q-17 109 -82 170.5t-166 61.5q-102 0 -170 -62t-90 -170z" />
<glyph unicode="&#xe7;" horiz-adv-x="1130" d="M80 498v16q0 114 41 211.5t111 164.5t164 104.5t200 37.5q163 0 287 -85.5t176 -237.5l-240 -35q-67 153 -221 153q-119 0 -197.5 -87t-78.5 -226v-16q0 -139 78.5 -226.5t197.5 -87.5q77 0 134.5 41.5t88.5 114.5l240 -35q-42 -131 -142 -214t-235 -105l-147 -287h-207 l159 291q-179 35 -294 172t-115 336z" />
<glyph unicode="&#xe8;" horiz-adv-x="1165" d="M80 498v16q0 152 67.5 271t182.5 183t256 64q213 0 353 -141t140 -367v-80h-762q14 -122 87.5 -193t185.5 -71q149 0 223 135l246 -34q-59 -140 -184.5 -220.5t-286.5 -80.5q-142 0 -257.5 63.5t-183 182.5t-67.5 272zM231 1430h283l178 -297h-213zM322 608h516 q-19 109 -84 169.5t-168 60.5q-104 0 -173 -61t-91 -169z" />
<glyph unicode="&#xe9;" horiz-adv-x="1165" d="M80 498v16q0 152 67.5 271t182.5 183t256 64q213 0 353 -141t140 -367v-80h-762q14 -122 87.5 -193t185.5 -71q149 0 223 135l246 -34q-59 -140 -184.5 -220.5t-286.5 -80.5q-142 0 -257.5 63.5t-183 182.5t-67.5 272zM322 608h516q-19 109 -84 169.5t-168 60.5 q-104 0 -173 -61t-91 -169zM467 1133l178 297h283l-248 -297h-213z" />
<glyph unicode="&#xea;" horiz-adv-x="1165" d="M80 498v16q0 152 67.5 271t182.5 183t256 64q213 0 353 -141t140 -367v-80h-762q14 -122 87.5 -193t185.5 -71q149 0 223 135l246 -34q-59 -140 -184.5 -220.5t-286.5 -80.5q-142 0 -257.5 63.5t-183 182.5t-67.5 272zM250 1133l217 303h238l215 -303h-195l-139 170 l-142 -170h-194zM322 608h516q-19 109 -84 169.5t-168 60.5q-104 0 -173 -61t-91 -169z" />
<glyph unicode="&#xeb;" horiz-adv-x="1165" d="M80 498v16q0 152 67.5 271t182.5 183t256 64q213 0 353 -141t140 -367v-80h-762q14 -122 87.5 -193t185.5 -71q149 0 223 135l246 -34q-59 -140 -184.5 -220.5t-286.5 -80.5q-142 0 -257.5 63.5t-183 182.5t-67.5 272zM236 1294q0 56 40.5 96t98.5 40q59 0 100 -40 t41 -96q0 -57 -40.5 -97t-100.5 -40q-58 0 -98.5 40t-40.5 97zM322 608h516q-19 109 -84 169.5t-168 60.5q-104 0 -173 -61t-91 -169zM633 1294q0 56 41 96t100 40t99 -40t40 -96q0 -58 -39.5 -97.5t-99.5 -39.5t-100.5 40t-40.5 97z" />
<glyph unicode="&#xec;" horiz-adv-x="520" d="M-90 1430h283l178 -297h-213zM141 0v1012h238v-1012h-238z" />
<glyph unicode="&#xed;" horiz-adv-x="520" d="M141 0v1012h238v-1012h-238zM145 1133l179 297h282l-248 -297h-213z" />
<glyph unicode="&#xee;" horiz-adv-x="520" d="M-72 1133l217 303h238l215 -303h-195l-139 170l-141 -170h-195zM141 0v1012h238v-1012h-238z" />
<glyph unicode="&#xef;" horiz-adv-x="520" d="M-86 1294q0 56 40.5 96t98.5 40q60 0 101 -40t41 -96q0 -57 -41 -97t-101 -40q-58 0 -98.5 40t-40.5 97zM141 0v1012h238v-1012h-238zM311 1294q0 56 41 96t101 40q59 0 99 -40t40 -96q0 -58 -40 -97.5t-99 -39.5q-60 0 -101 40t-41 97z" />
<glyph unicode="&#xf0;" d="M80 498v16q0 113 41.5 212t109 165t152.5 103.5t172 37.5q160 0 264 -123q-72 141 -213 279l-231 -78l-47 123l164 55q-125 101 -269 187h326q76 -51 153 -115l191 65l47 -122l-129 -43q309 -317 309 -707v-12q0 -250 -150 -405.5t-374 -155.5q-141 0 -258 63.5 t-187.5 183t-70.5 271.5zM322 498q0 -139 79.5 -226.5t198.5 -87.5t199 87.5t80 226.5v16q0 139 -80 226t-199 87t-198.5 -87t-79.5 -226v-16z" />
<glyph unicode="&#xf1;" horiz-adv-x="1196" d="M141 0v1012h234v-152h4q107 172 319 172q69 0 130.5 -20t114.5 -62t84.5 -117.5t31.5 -175.5v-657h-240v592q0 113 -49.5 174t-144.5 61q-104 0 -175 -69t-71 -183v-575h-238zM303 1155q0 66 17.5 123t64 99t115.5 42q41 0 75 -15t53 -33t44 -33t51 -15q34 0 52 23.5 t18 66.5h133q0 -130 -55 -199t-142 -69q-49 0 -89 24.5t-72.5 49t-63.5 24.5q-68 0 -68 -88h-133z" />
<glyph unicode="&#xf2;" d="M80 498v16q0 153 70 272t188 182.5t262 63.5t262 -63.5t188 -182.5t70 -272v-16q0 -153 -70 -272t-188 -182.5t-262 -63.5t-262 63.5t-188 182.5t-70 272zM248 1430h282l179 -297h-213zM322 498q0 -139 79.5 -226.5t198.5 -87.5t199 87.5t80 226.5v16q0 139 -80 226 t-199 87t-198.5 -87t-79.5 -226v-16z" />
<glyph unicode="&#xf3;" d="M80 498v16q0 153 70 272t188 182.5t262 63.5t262 -63.5t188 -182.5t70 -272v-16q0 -153 -70 -272t-188 -182.5t-262 -63.5t-262 63.5t-188 182.5t-70 272zM322 498q0 -139 79.5 -226.5t198.5 -87.5t199 87.5t80 226.5v16q0 139 -80 226t-199 87t-198.5 -87t-79.5 -226 v-16zM481 1133l178 297h283l-248 -297h-213z" />
<glyph unicode="&#xf4;" d="M80 498v16q0 153 70 272t188 182.5t262 63.5t262 -63.5t188 -182.5t70 -272v-16q0 -153 -70 -272t-188 -182.5t-262 -63.5t-262 63.5t-188 182.5t-70 272zM266 1133l217 303h238l215 -303h-195l-139 170l-141 -170h-195zM322 498q0 -139 79.5 -226.5t198.5 -87.5 t199 87.5t80 226.5v16q0 139 -80 226t-199 87t-198.5 -87t-79.5 -226v-16z" />
<glyph unicode="&#xf5;" d="M80 498v16q0 153 70 272t188 182.5t262 63.5t262 -63.5t188 -182.5t70 -272v-16q0 -153 -70 -272t-188 -182.5t-262 -63.5t-262 63.5t-188 182.5t-70 272zM291 1155q0 48 10.5 92.5t32 84.5t61 63.5t92.5 23.5q41 0 75 -15t53 -33t44.5 -33t51.5 -15q69 0 69 90h133 q0 -130 -54.5 -199t-141.5 -69q-49 0 -89 24.5t-72.5 49t-63.5 24.5q-68 0 -68 -88h-133zM322 498q0 -139 79.5 -226.5t198.5 -87.5t199 87.5t80 226.5v16q0 139 -80 226t-199 87t-198.5 -87t-79.5 -226v-16z" />
<glyph unicode="&#xf6;" d="M80 498v16q0 153 70 272t188 182.5t262 63.5t262 -63.5t188 -182.5t70 -272v-16q0 -153 -70 -272t-188 -182.5t-262 -63.5t-262 63.5t-188 182.5t-70 272zM252 1294q0 56 40.5 96t98.5 40q59 0 100 -40t41 -96q0 -57 -40.5 -97t-100.5 -40q-58 0 -98.5 40t-40.5 97z M322 498q0 -139 79.5 -226.5t198.5 -87.5t199 87.5t80 226.5v16q0 139 -80 226t-199 87t-198.5 -87t-79.5 -226v-16zM649 1294q0 56 41 96t101 40q59 0 99 -40t40 -96q0 -58 -40 -97.5t-99 -39.5q-60 0 -101 40t-41 97z" />
<glyph unicode="&#xf7;" horiz-adv-x="1202" d="M123 612v197h954v-197h-954zM467 369q0 57 38.5 96t96.5 39q57 0 95 -39t38 -96q0 -55 -38.5 -94t-94.5 -39q-58 0 -96.5 39t-38.5 94zM467 1053q0 56 38.5 94.5t96.5 38.5q57 0 95 -38.5t38 -94.5t-38.5 -95.5t-94.5 -39.5q-58 0 -96.5 39.5t-38.5 95.5z" />
<glyph unicode="&#xf8;" d="M80 37l115 125q-115 137 -115 336v16q0 153 70 272t188 182.5t262 63.5q178 0 315 -98l115 123l90 -82l-114 -125q114 -136 114 -336v-16q0 -153 -70 -272t-188 -182.5t-262 -63.5q-176 0 -311 96l-115 -125zM322 498q0 -97 36 -162l406 436q-71 55 -164 55 q-119 0 -198.5 -87t-79.5 -226v-16zM438 238q69 -54 162 -54q119 0 199 87.5t80 226.5v16q0 90 -35 162z" />
<glyph unicode="&#xf9;" horiz-adv-x="1196" d="M137 354v658h240v-590q0 -114 50.5 -176t145.5 -62q103 0 173.5 70t70.5 184v574h240v-1012h-236v152h-4q-107 -172 -317 -172q-54 0 -104.5 12t-98.5 40t-83 69.5t-56 106.5t-21 146zM246 1430h282l179 -297h-213z" />
<glyph unicode="&#xfa;" horiz-adv-x="1196" d="M137 354v658h240v-590q0 -114 50.5 -176t145.5 -62q103 0 173.5 70t70.5 184v574h240v-1012h-236v152h-4q-107 -172 -317 -172q-54 0 -104.5 12t-98.5 40t-83 69.5t-56 106.5t-21 146zM479 1133l178 297h283l-248 -297h-213z" />
<glyph unicode="&#xfb;" horiz-adv-x="1196" d="M137 354v658h240v-590q0 -114 50.5 -176t145.5 -62q103 0 173.5 70t70.5 184v574h240v-1012h-236v152h-4q-107 -172 -317 -172q-54 0 -104.5 12t-98.5 40t-83 69.5t-56 106.5t-21 146zM262 1133l217 303h238l215 -303h-195l-139 170l-141 -170h-195z" />
<glyph unicode="&#xfc;" horiz-adv-x="1196" d="M137 354v658h240v-590q0 -114 50.5 -176t145.5 -62q103 0 173.5 70t70.5 184v574h240v-1012h-236v152h-4q-107 -172 -317 -172q-54 0 -104.5 12t-98.5 40t-83 69.5t-56 106.5t-21 146zM248 1294q0 56 40.5 96t98.5 40q59 0 100 -40t41 -96q0 -57 -40.5 -97t-100.5 -40 q-58 0 -98.5 40t-40.5 97zM645 1294q0 56 41 96t100 40t99.5 -40t40.5 -96q0 -57 -40 -97t-100 -40t-100.5 40t-40.5 97z" />
<glyph unicode="&#xfd;" horiz-adv-x="1095" d="M31 1012h258l264 -721l256 721h256l-555 -1422h-252l168 412zM438 1133l178 297h283l-248 -297h-213z" />
<glyph unicode="&#xfe;" horiz-adv-x="1251" d="M141 -408v1883h238v-592q127 149 332 149q95 0 179 -36.5t146.5 -102.5t98.5 -164t36 -215v-16q0 -231 -131.5 -374.5t-328.5 -143.5q-101 0 -187.5 39.5t-148.5 113.5v-541h-234zM369 498q0 -139 79 -226.5t199 -87.5t199.5 87.5t79.5 226.5v16q0 141 -80 227t-199 86 t-198.5 -86t-79.5 -227v-16z" />
<glyph unicode="&#xff;" horiz-adv-x="1095" d="M31 1012h258l264 -721l256 721h256l-555 -1422h-252l168 412zM209 1294q0 56 40.5 96t98.5 40q59 0 100 -40t41 -96q0 -57 -40.5 -97t-100.5 -40q-58 0 -98.5 40t-40.5 97zM606 1294q0 56 41 96t101 40q59 0 99 -40t40 -96q0 -58 -39.5 -97.5t-99.5 -39.5t-101 40t-41 97 z" />
<glyph unicode="&#x152;" horiz-adv-x="2242" d="M90 707q0 212 88.5 377.5t250 257.5t368.5 92q259 0 442 -144v123h903v-227h-645v-357h590v-223h-590v-6v-371h662v-229h-920v123q-182 -143 -442 -143q-207 0 -368.5 92t-250 257.5t-88.5 377.5zM356 707q0 -220 122.5 -360t318.5 -140t319 140t123 360t-123 359.5 t-319 139.5t-318.5 -139.5t-122.5 -359.5z" />
<glyph unicode="&#x153;" horiz-adv-x="1972" d="M80 498v16q0 153 70 272t188 182.5t262 63.5q121 0 225 -46.5t176 -131.5q69 85 170.5 131.5t219.5 46.5q215 0 354 -141t139 -367v-80h-760q14 -122 87.5 -193t185.5 -71q149 0 223 135l246 -34q-59 -140 -184.5 -220.5t-286.5 -80.5q-120 0 -222.5 46.5t-171.5 131.5 q-72 -85 -176 -131.5t-225 -46.5q-144 0 -262 63.5t-188 182.5t-70 272zM322 498q0 -139 79.5 -226.5t198.5 -87.5t199 87.5t80 226.5v16q0 139 -80 226t-199 87t-198.5 -87t-79.5 -226v-16zM1128 608h517q-19 109 -84.5 169.5t-169.5 60.5q-102 0 -171.5 -61t-91.5 -169z " />
<glyph unicode="&#x178;" horiz-adv-x="1314" d="M31 1413h303l325 -575l318 575h307l-496 -833v-580h-260v580zM313 1696q0 56 41 95.5t99 39.5q60 0 100.5 -39.5t40.5 -95.5q0 -57 -40.5 -97t-100.5 -40q-58 0 -99 40t-41 97zM711 1696q0 56 40.5 95.5t100.5 39.5q59 0 99 -39.5t40 -95.5q0 -58 -39.5 -97.5 t-99.5 -39.5t-100.5 40t-40.5 97z" />
<glyph unicode="&#x2c6;" horiz-adv-x="1021" d="M176 1133l217 303h238l215 -303h-195l-139 170l-141 -170h-195z" />
<glyph unicode="&#x2dc;" horiz-adv-x="1021" d="M199 1155q0 48 10.5 92.5t32 84.5t61 63.5t92.5 23.5q41 0 75 -15t53 -33t44 -33t51 -15q34 0 52 23.5t18 66.5h133q0 -130 -54.5 -199t-141.5 -69q-39 0 -73 15.5t-54.5 33.5t-47 33.5t-51.5 15.5q-67 0 -67 -88h-133z" />
<glyph unicode="&#x2000;" horiz-adv-x="956" />
<glyph unicode="&#x2001;" horiz-adv-x="1913" />
<glyph unicode="&#x2002;" horiz-adv-x="956" />
<glyph unicode="&#x2003;" horiz-adv-x="1913" />
<glyph unicode="&#x2004;" horiz-adv-x="637" />
<glyph unicode="&#x2005;" horiz-adv-x="478" />
<glyph unicode="&#x2006;" horiz-adv-x="318" />
<glyph unicode="&#x2007;" horiz-adv-x="318" />
<glyph unicode="&#x2008;" horiz-adv-x="239" />
<glyph unicode="&#x2009;" horiz-adv-x="382" />
<glyph unicode="&#x200a;" horiz-adv-x="106" />
<glyph unicode="&#x2010;" horiz-adv-x="768" d="M111 446v205h546v-205h-546z" />
<glyph unicode="&#x2011;" horiz-adv-x="768" d="M111 446v205h546v-205h-546z" />
<glyph unicode="&#x2012;" horiz-adv-x="768" d="M111 446v205h546v-205h-546z" />
<glyph unicode="&#x2013;" horiz-adv-x="1011" d="M96 414v196h822v-196h-822z" />
<glyph unicode="&#x2014;" horiz-adv-x="1521" d="M96 414v196h1329v-196h-1329z" />
<glyph unicode="&#x2018;" horiz-adv-x="464" d="M72 1057q0 58 20 105t68 122l96 150l125 -52l-119 -213l-29 -14q6 2 19 2q59 0 98 -38.5t39 -98.5t-43.5 -101.5t-109.5 -41.5q-75 0 -119.5 50.5t-44.5 129.5z" />
<glyph unicode="&#x2019;" horiz-adv-x="464" d="M78 1290q0 61 43 102.5t110 41.5q74 0 119 -51t45 -130q0 -40 -12.5 -79.5t-27.5 -66.5t-48 -81l-98 -149l-123 51l117 213l26 14l-14 -2q-60 0 -98.5 38.5t-38.5 98.5z" />
<glyph unicode="&#x201a;" horiz-adv-x="466" d="M76 -219l131 231l29 17q-6 -2 -19 -2q-59 0 -98 38.5t-39 98.5q0 62 44.5 102.5t111.5 40.5q74 0 117.5 -51t43.5 -131q0 -57 -20 -103t-68 -120l-108 -174z" />
<glyph unicode="&#x201c;" horiz-adv-x="907" d="M72 1059q0 58 20.5 105.5t67.5 119.5l96 152l125 -54l-119 -211l-33 -16l-2 -2q12 4 25 4q59 0 98 -38.5t39 -96.5q0 -62 -43.5 -102.5t-109.5 -40.5q-75 0 -119.5 50.5t-44.5 129.5zM512 1059q0 57 20 103t68 122l98 152l123 -54l-119 -211l-32 -16l-4 -2q16 4 26 4 q59 0 98 -38.5t39 -96.5q0 -62 -43.5 -102.5t-109.5 -40.5q-74 0 -119 50.5t-45 129.5z" />
<glyph unicode="&#x201d;" horiz-adv-x="907" d="M78 1292q0 61 43 102.5t110 41.5q74 0 119 -52t45 -131q0 -57 -20 -103t-68 -122l-98 -149l-123 51l117 211l33 16h2q-8 -2 -23 -2q-60 0 -98.5 38.5t-38.5 98.5zM518 1292q0 61 43.5 102.5t110.5 41.5q74 0 119 -52t45 -131q0 -57 -20 -103t-68 -122l-99 -149l-123 51 l117 211l33 16h2q-8 -2 -23 -2q-59 0 -98 38.5t-39 98.5z" />
<glyph unicode="&#x201e;" horiz-adv-x="907" d="M238 -215l135 233l28 17q-6 -2 -18 -2q-60 0 -99.5 39t-39.5 100t44.5 102t112.5 41q29 0 50 -6q24 6 51 6q75 0 119.5 -50.5t44.5 -131.5q0 -59 -20 -105t-68 -122l-113 -174l-78 32l-22 -32z" />
<glyph unicode="&#x2022;" horiz-adv-x="716" d="M94 590q0 109 77.5 186.5t186.5 77.5q108 0 185.5 -78t77.5 -186t-77.5 -185t-185.5 -77q-109 0 -186.5 76.5t-77.5 185.5z" />
<glyph unicode="&#x2026;" horiz-adv-x="1656" d="M119 147q0 69 49 117.5t119 48.5q69 0 117.5 -48.5t48.5 -117.5q0 -70 -48.5 -118.5t-117.5 -48.5q-71 0 -119.5 48.5t-48.5 118.5zM662 147q0 69 48.5 117.5t118.5 48.5q69 0 117.5 -48.5t48.5 -117.5q0 -70 -48.5 -118.5t-117.5 -48.5q-71 0 -119 48t-48 119zM1204 147 q0 69 49 117.5t119 48.5q69 0 117.5 -48.5t48.5 -117.5q0 -70 -48.5 -118.5t-117.5 -48.5q-71 0 -119.5 48.5t-48.5 118.5z" />
<glyph unicode="&#x202f;" horiz-adv-x="382" />
<glyph unicode="&#x2039;" horiz-adv-x="610" d="M88 498l227 344h211l-221 -344l221 -342h-211z" />
<glyph unicode="&#x203a;" horiz-adv-x="610" d="M84 156l221 342l-221 344h211l227 -344l-227 -342h-211z" />
<glyph unicode="&#x205f;" horiz-adv-x="478" />
<glyph unicode="&#x20ac;" horiz-adv-x="1427" d="M59 502v149h142q-2 18 -2 56v49h-140v149h156q44 244 193 386.5t385 142.5q208 0 345 -114t205 -325l-247 -22q-43 117 -113.5 179t-187.5 62q-133 0 -215.5 -81.5t-114.5 -227.5h432l-35 -149h-416q-2 -16 -2 -49q0 -38 2 -56h385l-32 -149h-334q32 -143 115 -223 t217 -80q117 0 187.5 61.5t111.5 179.5l247 -22q-68 -210 -205 -324t-345 -114q-235 0 -383.5 140.5t-192.5 381.5h-158z" />
<glyph unicode="&#x2122;" horiz-adv-x="1406" d="M53 1290v123h500v-123h-182v-514h-135v514h-183zM637 776v637h160l184 -457l188 457h158v-637h-131v391l-160 -391h-106l-162 393v-393h-131z" />
<glyph unicode="&#x25fc;" horiz-adv-x="1013" d="M0 0v1014h1014v-1014h-1014z" />
<glyph unicode="&#xfb01;" horiz-adv-x="1236" d="M35 807v205h166v129q0 175 88 264.5t254 89.5q55 0 141 -18v-205q-60 14 -104 14q-78 0 -109 -38.5t-31 -119.5v-116h654v-1012h-238v807h-416v-807h-239v807h-166zM825 1311q0 63 43.5 106t106.5 43t107 -43t44 -106t-44 -106.5t-107 -43.5t-106.5 43.5t-43.5 106.5z " />
<glyph unicode="&#xfb02;" horiz-adv-x="1232" d="M35 807v205h166v129q0 175 88 264.5t254 89.5q55 0 141 -18v-205q-60 14 -104 14q-78 0 -109 -38.5t-31 -119.5v-116h217v-205h-217v-807h-239v807h-166zM854 0v1475h238v-1475h-238z" />
<glyph unicode="&#xfb03;" horiz-adv-x="1951" d="M338 807v205h166v129q0 175 88 264.5t254 89.5q35 0 51 -2q18 2 57 2q56 0 142 -18v-205q-60 14 -105 14h-4v-14q-6 2 -22 5t-23 5q-50 -11 -70 -49t-20 -105v-116h217v-205h-217v-807h-348v807h-166zM1325 807v205h485v-1012h-237v807h-248zM1542 1311q0 63 43.5 106 t106.5 43t107 -43t44 -106t-44 -106.5t-107 -43.5t-106.5 43.5t-43.5 106.5z" />
<glyph unicode="&#xfb04;" horiz-adv-x="1947" d="M35 807v205h166v129q0 175 88 264.5t254 89.5q55 0 141 -18v-205q-60 14 -104 14q-78 0 -109 -38.5t-31 -119.5v-116h475v129q0 175 88 264.5t254 89.5q56 0 142 -18v-205q-60 14 -105 14q-78 0 -108.5 -38.5t-30.5 -119.5v-116h217v-205h-217v-807h-240v807h-475v-807 h-239v807h-166zM1571 0v1475h237v-1475h-237z" />
</font>
</defs>
</svg>
