<?xml version="1.0" encoding="utf-8"?>
<!-- Generator: Adobe Illustrator 18.1.1, SVG Export Plug-In . SVG Version: 6.00 Build 0)  -->
<!DOCTYPE svg PUBLIC "-//W3C//DTD SVG 1.0//EN" "http://www.w3.org/TR/2001/REC-SVG-20010904/DTD/svg10.dtd">
<svg version="1.0" id="Layer_1" xmlns="http://www.w3.org/2000/svg" xmlns:xlink="http://www.w3.org/1999/xlink" x="0px" y="0px"
	 width="40.2px" height="51.2px" viewBox="0 0 40.2 51.2" enable-background="new 0 0 40.2 51.2" xml:space="preserve">
<path opacity="0.8" fill="#FF7D52" d="M29.9,10.1c-2.6-2.6-6.1-4.2-9.7-4.2c0,0,0,0,0,0s0,0,0,0c-3.6,0-7.1,1.6-9.7,4.2
	c-2.6,2.6-4.3,6.1-4.3,9.7c0,0.3,0,0.6,0,1c0.3,3.4,1.3,6.7,2.8,9.6c1.4,3,3.3,5.7,5.1,8c2.4,3,4.8,5.3,6.1,6.5c0,0,0,0,0,0
	c0.8-0.7,1.9-1.7,3.2-3.1c2.5-2.7,5.7-6.5,7.9-11c1.5-3,2.5-6.4,2.8-9.9c0-0.3,0-0.6,0-1C34.1,16.2,32.5,12.7,29.9,10.1z M23.5,23
	c-0.9,0.9-2.1,1.4-3.4,1.4c-1.3,0-2.5-0.5-3.4-1.4c-0.9-0.9-1.4-2.1-1.4-3.4c0-1.3,0.5-2.5,1.4-3.4c0.9-0.9,2.1-1.4,3.4-1.4
	c1.3,0,2.5,0.5,3.4,1.4c0.9,0.9,1.4,2.1,1.4,3.4C24.9,20.9,24.4,22.1,23.5,23z"/>
</svg>
